<svg width="24" height="24" viewBox="0 0 24 24" fill="none" xmlns="http://www.w3.org/2000/svg">
<path fill-rule="evenodd" clip-rule="evenodd" d="M12 1.67442C6.29734 1.67442 1.67442 6.29734 1.67442 12C1.67442 17.7027 6.29734 22.3256 12 22.3256C17.7027 22.3256 22.3256 17.7027 22.3256 12C22.3256 6.29734 17.7027 1.67442 12 1.67442ZM0 12C0 5.37258 5.37258 0 12 0C18.6274 0 24 5.37258 24 12C24 18.6274 18.6274 24 12 24C5.37258 24 0 18.6274 0 12Z" fill="#4A95CF" fill-opacity="0.4"/>
<circle cx="12" cy="12" r="8.47059" fill="#4A95CF" fill-opacity="0.4"/>
<path d="M14.3168 16.9424C14.0014 16.9424 13.6255 16.8575 13.1768 16.5907L12.0247 15.8995L10.8727 16.5786C9.8176 17.2092 9.12636 16.8454 8.87169 16.6635C8.61702 16.4816 8.0713 15.9359 8.35023 14.7353L8.64128 13.4862L7.67111 12.5888C7.13752 12.0552 6.94349 11.4125 7.12539 10.8304C7.3073 10.2483 7.84089 9.83592 8.59277 9.71465L9.89037 9.49637L10.5088 8.13814C10.8605 7.4469 11.4063 7.05882 12.0247 7.05882C12.6432 7.05882 13.2011 7.45904 13.5406 8.15028L14.2561 9.58127L15.4567 9.72679C16.1965 9.84806 16.73 10.2604 16.9241 10.8425C17.106 11.4246 16.9119 12.0673 16.3784 12.6009L15.3718 13.6075L15.6871 14.7353C15.966 15.9359 15.4203 16.4816 15.1656 16.6635C15.0323 16.7726 14.7412 16.9424 14.3168 16.9424ZM9.12636 11.4852L9.96313 12.322C10.3512 12.71 10.5452 13.3649 10.424 13.8985L10.1935 14.8687L11.1637 14.2987C11.6852 13.9955 12.3885 13.9955 12.8979 14.2987L13.8681 14.8687L13.6498 13.8985C13.5285 13.3528 13.7104 12.71 14.0985 12.322L14.9352 11.4852L13.8802 11.3033C13.3708 11.2184 12.8615 10.8425 12.6311 10.3817L12.0247 9.19319L11.4184 10.4059C11.2001 10.8546 10.6908 11.2427 10.1814 11.3276L9.12636 11.4852Z" fill="#4A95CF"/>
</svg>
