<svg width="36" height="36" viewBox="0 0 36 36" fill="none" xmlns="http://www.w3.org/2000/svg">
<path fill-rule="evenodd" clip-rule="evenodd" d="M18 2.51163C9.44601 2.51163 2.51163 9.44601 2.51163 18C2.51163 26.554 9.44601 33.4884 18 33.4884C26.554 33.4884 33.4884 26.554 33.4884 18C33.4884 9.44601 26.554 2.51163 18 2.51163ZM0 18C0 8.05887 8.05887 0 18 0C27.9411 0 36 8.05887 36 18C36 27.9411 27.9411 36 18 36C8.05887 36 0 27.9411 0 18Z" fill="#C0C0C0"/>
<circle cx="17.9999" cy="18" r="12.7059" fill="#E7F3FF"/>
<path d="M21.4751 25.4136C21.0022 25.4136 20.4383 25.2863 19.7652 24.8861L18.0371 23.8492L16.309 24.8679C14.7264 25.8138 13.6895 25.2681 13.3075 24.9952C12.9255 24.7224 12.107 23.9038 12.5253 22.1029L12.9619 20.2293L11.5067 18.8831C10.7063 18.0828 10.4152 17.1187 10.6881 16.2455C10.961 15.3724 11.7613 14.7539 12.8892 14.572L14.8356 14.2446L15.7633 12.2072C16.2908 11.1704 17.1094 10.5882 18.0371 10.5882C18.9648 10.5882 19.8016 11.1886 20.3109 12.2254L21.3842 14.3719L23.1851 14.5902C24.2947 14.7721 25.0951 15.3905 25.3861 16.2637C25.659 17.1368 25.3679 18.101 24.5675 18.9014L23.0577 20.4112L23.5307 22.1029C23.9491 23.9038 23.1305 24.7224 22.7485 24.9952C22.5484 25.1589 22.1118 25.4136 21.4751 25.4136ZM13.6895 17.2279L14.9447 18.483C15.5268 19.0651 15.8179 20.0474 15.6359 20.8478L15.2903 22.303L16.7456 21.448C17.5278 20.9933 18.5828 20.9933 19.3468 21.448L20.8021 22.303L20.4747 20.8478C20.2927 20.0292 20.5656 19.0651 21.1477 18.483L22.4029 17.2279L20.8203 16.9549C20.0563 16.8276 19.2923 16.2637 18.9466 15.5725L18.0371 13.7898L17.1276 15.6089C16.8001 16.2819 16.0361 16.864 15.2721 16.9914L13.6895 17.2279Z" fill="#4A95CF"/>
</svg>
