<?xml version="1.0" encoding="utf-8"?>
<!-- Generator: Adobe Illustrator 23.0.1, SVG Export Plug-In . SVG Version: 6.00 Build 0)  -->
<svg version="1.1" id="Layer_1" xmlns="http://www.w3.org/2000/svg" xmlns:xlink="http://www.w3.org/1999/xlink" x="0px" y="0px"
	 viewBox="0 0 513.8 144" style="enable-background:new 0 0 513.8 144;" xml:space="preserve">
<style type="text/css">
	.st0{display:none;}
	.st1{display:inline;fill:#2E2BE3;}
	.st2{fill:#246BF7;}
</style>
<g id="TM" class="st0">
	<path class="st1" d="M506.5,88.8h-1.1v-4.7h-1.7v-1h4.6v1h-1.7L506.5,88.8L506.5,88.8z M512.3,87.5L512.3,87.5l-1.8-2.7v4h-1v-5.7
		h1.2l1.7,2.7l1.7-2.7h1.1v5.7h-1v-4L512.3,87.5z"/>
</g>
<g id="Base_logo">
	<path class="st2" d="M134.8,49.3h28.6v13.3H119v-61h15.8V49.3z M209.2,38.9c0,6.7-5.1,11.5-11.9,11.5c-6.9,0-11.8-4.9-11.8-11.5
		V1.7h-15.9v37c0,14.7,10.7,25.6,27.7,25.6c17.1,0,27.8-10.9,27.8-25.6v-37h-15.9L209.2,38.9L209.2,38.9z M266,62.6h-31.7v-61h30.8
		c14.8,0,20.6,8.4,20.6,16.7c0,6-3.2,10.6-8.3,12.8c6.7,2.3,10.3,7.9,10.3,14.1C287.7,55.2,280.3,62.6,266,62.6z M249.7,26.1h12.5
		c5.4,0,7.8-2.4,7.8-6.1c0-3.2-2.3-6.3-7.9-6.3h-12.4L249.7,26.1L249.7,26.1z M262.9,50.4c5.4,0,8.5-2.2,8.5-6.6
		c0-3.9-2.8-6.7-8.5-6.7h-13.1v13.3C249.8,50.4,262.9,50.4,262.9,50.4z M208.4,119.9l-27.8-36.8h-14.4V144H182v-36.8l27.8,36.8h14.4
		V83.1h-15.8V119.9L208.4,119.9z M292.7,113.6c0,15.7-11.6,30.5-32.9,30.5h-25.4v-61h25.4C280.8,83.1,292.7,97.9,292.7,113.6z
		 M276.5,113.6c0-8.9-6.6-17.2-17.6-17.2h-8.4v34.5h8.4C269.9,130.8,276.5,122.4,276.5,113.6z M339.9,107.3h-24.3V83.1h-15.8V144
		h15.8v-23.6h24.2V144h15.8V83.1h-15.8L339.9,107.3L339.9,107.3z M400.8,83.1l23.8,60.9h-16.3l-3-8.5h-25.2L377,144h-16.2L385,83.1
		H400.8z M400.9,123.4l-8.1-23.2l-8.4,23.2C384.4,123.4,400.9,123.4,400.9,123.4z M482,83.1l-18.2,29.5l-18.9-29.5h-15.4V144h15.4
		v-35.1l13.7,21.4h9.3l13.9-21.7V144h15.5V83.1H482z M145.2,83.3l-14.5,25.8l-14.6-26H98.4l24,40.9v20h16.1v-20.3l23.9-40.6
		L145.2,83.3z M66,121.2L53.8,83.1H41.3l-12,38.3L16.8,83.1H0L22.4,144h13.4l12-36.1L59.5,144h13.4l22.3-60.9H78.4L66,121.2z
		 M82,64.2c11.9,0,23.7-6,29-16.1l-13-7.3c-3.6,5.8-9.4,9.2-16.6,9.2c-9.8,0-17-7.3-17-17.9s7.2-17.9,17-17.9c7.3,0,13,3.4,16.6,9.2
		l13-7.3C105.7,6,93.9,0,82,0C61.5,0,48,14.4,48,32.1S61.5,64.2,82,64.2z"/>
</g>
</svg>
