<svg width="15" height="18" viewBox="0 0 15 18" fill="none" xmlns="http://www.w3.org/2000/svg">
<g clip-path="url(#clip0_642_1825)">
<path d="M1.85902 -8.64529e-06C0.834231 -8.64529e-06 3.05176e-05 0.83479 3.05176e-05 1.85954V16.1403C3.05176e-05 17.1651 0.834231 17.9999 1.85902 17.9999H12.7791C13.8039 17.9999 14.6381 17.1651 14.6381 16.1403V4.39754C14.6381 4.39754 14.6673 4.05369 14.518 3.71909C14.3781 3.40544 14.1501 3.18714 14.1501 3.18714C14.1495 3.18637 14.1489 3.1856 14.1484 3.18484L11.4391 0.52737C11.4376 0.525854 11.4361 0.524353 11.4346 0.522868C11.4346 0.522868 11.2032 0.302608 10.8603 0.155467C10.4566 -0.0177847 10.0405 0.000504228 10.0405 0.000504228L10.0467 -7.24792e-05L1.85902 -8.64529e-06Z" fill="#FF2116"/>
<path d="M1.85902 0.610767H10.0467C10.0487 0.610788 10.0508 0.610788 10.0529 0.610767C10.0529 0.610767 10.3803 0.61394 10.6198 0.716705C10.8502 0.815613 11.0137 0.965334 11.0148 0.966338C11.0148 0.966341 11.0159 0.967491 11.0159 0.967491L13.7184 3.61876C13.7184 3.61876 13.8813 3.79066 13.9602 3.96757C14.0239 4.11035 14.0278 4.3716 14.0278 4.3716C14.0275 4.37591 14.0273 4.38023 14.0272 4.38455V16.1403C14.0272 16.8373 13.4761 17.389 12.7791 17.389H1.85902C1.162 17.389 0.61087 16.8373 0.61087 16.1403V1.8595C0.61087 1.16245 1.162 0.610767 1.85902 0.610767Z" fill="#F5F5F5"/>
<path d="M3.65507 10.7169C3.2348 10.2966 3.6895 9.71913 4.92351 9.10588L5.69996 8.72001L6.00245 8.05817C6.16882 7.69416 6.41713 7.10021 6.55424 6.73828L6.80355 6.08024L6.63175 5.59325C6.42051 4.99446 6.34518 4.09462 6.47921 3.77105C6.66075 3.33277 7.25539 3.37774 7.49081 3.84755C7.67467 4.21447 7.65587 4.87894 7.43792 5.71695L7.25925 6.40397L7.41663 6.67114C7.50319 6.81808 7.75604 7.167 7.97851 7.4465L8.39663 7.9666L8.91693 7.89871C10.5698 7.68302 11.1359 8.0496 11.1359 8.5752C11.1359 9.23855 9.83807 9.2933 8.74819 8.52781C8.50297 8.35558 8.33456 8.18448 8.33456 8.18448C8.33456 8.18448 7.65179 8.32348 7.31563 8.41409C6.96863 8.50762 6.79551 8.56619 6.28722 8.73776C6.28722 8.73776 6.10888 8.99675 5.99267 9.18503C5.56031 9.8855 5.05549 10.466 4.69496 10.6773C4.29131 10.9139 3.86813 10.93 3.65507 10.7169ZM4.31462 10.4813C4.55087 10.3353 5.02903 9.76976 5.36002 9.24487L5.49403 9.03236L4.88384 9.33916C3.9414 9.81301 3.51025 10.2596 3.73445 10.5297C3.86039 10.6815 4.01105 10.6689 4.31462 10.4813ZM10.4363 8.76298C10.6674 8.60114 10.6338 8.27499 10.3726 8.14349C10.1693 8.04115 10.0054 8.02013 9.47729 8.02792C9.15274 8.05005 8.63086 8.11546 8.54241 8.13535C8.54241 8.13535 8.82911 8.3335 8.9564 8.40633C9.12584 8.50311 9.53761 8.68276 9.83824 8.77478C10.1348 8.86555 10.3063 8.85598 10.4363 8.76298ZM7.97485 7.73994C7.83501 7.59294 7.59722 7.28612 7.44644 7.05813C7.24923 6.7995 7.15034 6.61703 7.15034 6.61703C7.15034 6.61703 7.0062 7.08065 6.88794 7.35964L6.51901 8.27156L6.41204 8.47841C6.41204 8.47841 6.98071 8.29195 7.27004 8.21638C7.57649 8.13633 8.19844 8.01403 8.19844 8.01403L7.97485 7.73994ZM7.18162 4.55888C7.21729 4.25955 7.23243 3.96067 7.13626 3.80994C6.8695 3.51832 6.54753 3.76151 6.60206 4.45482C6.62041 4.68805 6.67836 5.08676 6.75582 5.3325L6.89666 5.7793L6.99579 5.44278C7.05031 5.2577 7.13393 4.85994 7.18162 4.55888Z" fill="#FF2116"/>
<path d="M4.36978 12.6631H5.05211C5.27013 12.6631 5.4471 12.684 5.58303 12.7257C5.71896 12.7661 5.83335 12.8569 5.92621 12.9982C6.01907 13.1382 6.06551 13.3071 6.06551 13.5049C6.06551 13.6866 6.02782 13.8427 5.95246 13.9733C5.87709 14.1038 5.77548 14.198 5.64763 14.2559C5.52112 14.3137 5.32598 14.3427 5.0622 14.3427H4.82601V15.4187H4.36978V12.6631ZM4.82601 13.0164V13.9773H5.05211C5.25398 13.9773 5.39327 13.9396 5.46998 13.8642C5.54804 13.7889 5.58707 13.6664 5.58707 13.4968C5.58707 13.3703 5.5615 13.2681 5.51036 13.19C5.45922 13.1106 5.40269 13.0621 5.34079 13.0447C5.28022 13.0258 5.184 13.0164 5.05211 13.0164L4.82601 13.0164ZM6.41474 12.6631H7.03449C7.33461 12.6631 7.57416 12.7163 7.75315 12.8226C7.93349 12.9289 8.06942 13.087 8.16094 13.297C8.2538 13.5069 8.30023 13.7398 8.30023 13.9955C8.30023 14.2646 8.25851 14.5049 8.17507 14.7161C8.09297 14.9261 7.96647 15.0957 7.79555 15.2249C7.62597 15.3541 7.38373 15.4187 7.06881 15.4187H6.41474V12.6631ZM6.87097 13.0285V15.0533H7.06073C7.32586 15.0533 7.51831 14.9618 7.63809 14.7787C7.75786 14.5943 7.81775 14.3487 7.81775 14.0419C7.81775 13.3663 7.56541 13.0285 7.06073 13.0285H6.87097ZM8.73829 12.6631H10.2685V13.0285H9.19452V13.8521H10.0545V14.2175H9.19452V15.4187H8.73829V12.6631Z" fill="#2C2C2C"/>
</g>
<defs>
<clipPath id="clip0_642_1825">
<rect width="14.6404" height="18" fill="white"/>
</clipPath>
</defs>
</svg>
