<?xml version="1.0" encoding="utf-8"?>
<!-- Generator: Adobe Illustrator 25.2.1, SVG Export Plug-In . SVG Version: 6.00 Build 0)  -->
<svg version="1.1" id="Layer_1" xmlns="http://www.w3.org/2000/svg" xmlns:xlink="http://www.w3.org/1999/xlink" x="0px" y="0px"
	 viewBox="0 0 210 40" style="enable-background:new 0 0 210 40;" xml:space="preserve">
<style type="text/css">
	.st0{fill:#231F20;}
</style>
<g>
	<g>
		<g>
			<path class="st0" d="M21.13,34.02c0-0.29-0.01-0.52-0.03-0.69c-0.02-0.17-0.07-0.3-0.15-0.4c-0.08-0.09-0.19-0.16-0.33-0.19
				c-0.14-0.03-0.33-0.05-0.57-0.05v-0.24h2.59v0.24c-0.23,0-0.42,0.02-0.57,0.05c-0.14,0.03-0.25,0.09-0.33,0.19
				c-0.08,0.09-0.13,0.23-0.15,0.4c-0.03,0.17-0.04,0.4-0.04,0.69v5.45h-0.26l-4.62-5.71v3.95c0,0.28,0.01,0.51,0.04,0.68
				c0.03,0.17,0.08,0.31,0.15,0.41c0.08,0.1,0.19,0.16,0.33,0.19c0.14,0.03,0.33,0.05,0.57,0.05v0.24h-2.59v-0.24
				c0.23,0,0.42-0.02,0.57-0.05c0.14-0.03,0.25-0.09,0.33-0.19c0.08-0.1,0.12-0.23,0.15-0.41c0.02-0.17,0.03-0.4,0.03-0.68v-3.69
				c0-0.29-0.01-0.52-0.03-0.69c-0.02-0.17-0.07-0.3-0.15-0.4c-0.08-0.09-0.19-0.16-0.33-0.19c-0.14-0.03-0.33-0.05-0.57-0.05v-0.24
				h1.6l4.36,5.41V34.02z"/>
			<path class="st0" d="M25.34,39.04c0.23,0,0.42-0.02,0.57-0.05c0.14-0.03,0.25-0.09,0.33-0.19c0.08-0.1,0.12-0.23,0.15-0.41
				c0.02-0.17,0.03-0.4,0.03-0.68v-3.69c0-0.29-0.01-0.52-0.03-0.69c-0.02-0.17-0.07-0.3-0.15-0.4c-0.08-0.09-0.19-0.16-0.33-0.19
				c-0.14-0.03-0.33-0.05-0.57-0.05v-0.24h5.18l0.1,1.5h-0.24l-0.06-0.23c-0.04-0.15-0.08-0.28-0.13-0.39
				c-0.05-0.11-0.11-0.19-0.2-0.26c-0.09-0.07-0.21-0.12-0.36-0.15c-0.15-0.03-0.36-0.05-0.62-0.05h-1.68v2.58h0.57
				c0.29,0,0.52-0.01,0.69-0.03c0.17-0.02,0.3-0.07,0.4-0.15c0.09-0.08,0.16-0.19,0.19-0.34c0.03-0.14,0.05-0.33,0.05-0.57h0.24v2.6
				h-0.24c0-0.24-0.02-0.43-0.05-0.57c-0.03-0.14-0.09-0.25-0.19-0.33c-0.09-0.08-0.23-0.13-0.4-0.15c-0.17-0.02-0.4-0.03-0.69-0.03
				h-0.57v1.66c0,0.28,0.01,0.51,0.03,0.68c0.02,0.17,0.07,0.31,0.15,0.4c0.08,0.09,0.19,0.16,0.33,0.19
				c0.14,0.03,0.33,0.05,0.57,0.05h0.98c0.26,0,0.48-0.02,0.63-0.05c0.16-0.03,0.28-0.09,0.37-0.15c0.09-0.07,0.16-0.16,0.2-0.27
				c0.04-0.11,0.08-0.24,0.12-0.39l0.06-0.23H31l-0.09,1.51h-5.56V39.04z"/>
			<path class="st0" d="M36.48,39.47h-0.15l-1.84-5.78c-0.07-0.21-0.13-0.38-0.19-0.51c-0.06-0.13-0.14-0.23-0.23-0.3
				c-0.09-0.07-0.21-0.12-0.36-0.14c-0.15-0.02-0.34-0.03-0.57-0.03v-0.24h3.18v0.24c-0.24,0-0.42,0.02-0.57,0.05
				c-0.14,0.03-0.25,0.08-0.31,0.15c-0.06,0.07-0.09,0.16-0.09,0.27c0,0.11,0.03,0.24,0.07,0.4l1.25,3.92l1.59-5.02h0.16l1.59,5.01
				l1.24-3.91c0.1-0.32,0.09-0.54-0.02-0.67c-0.11-0.13-0.37-0.19-0.78-0.19v-0.24h2.55v0.24c-0.23,0-0.43,0.02-0.57,0.05
				c-0.15,0.03-0.27,0.08-0.36,0.16s-0.17,0.18-0.23,0.31c-0.06,0.13-0.12,0.29-0.18,0.48l-1.84,5.78h-0.15l-1.59-5.03L36.48,39.47z
				"/>
			<path class="st0" d="M52.63,37.71c0,0.28,0.01,0.51,0.03,0.68c0.02,0.17,0.07,0.31,0.15,0.41c0.08,0.1,0.19,0.16,0.33,0.19
				c0.14,0.03,0.33,0.05,0.57,0.05v0.24h-3.07v-0.24c0.23,0,0.42-0.02,0.57-0.05c0.14-0.03,0.25-0.09,0.33-0.19
				c0.08-0.1,0.13-0.23,0.15-0.41c0.02-0.17,0.03-0.4,0.03-0.68v-1.1l-1.89-2.92c-0.12-0.19-0.24-0.35-0.35-0.47
				c-0.11-0.12-0.23-0.23-0.35-0.3c-0.13-0.08-0.26-0.13-0.41-0.16c-0.15-0.03-0.33-0.05-0.53-0.05v-0.24h3.24v0.24
				c-0.23,0-0.42,0.02-0.55,0.06c-0.13,0.04-0.21,0.1-0.25,0.18c-0.04,0.08-0.04,0.17,0,0.27c0.04,0.11,0.1,0.22,0.18,0.35l1.64,2.5
				l1.66-2.5c0.1-0.15,0.17-0.28,0.2-0.39c0.04-0.11,0.04-0.2-0.01-0.27c-0.04-0.07-0.13-0.12-0.26-0.15
				c-0.13-0.03-0.31-0.05-0.56-0.05v-0.24h2.66v0.24c-0.23,0-0.43,0.02-0.59,0.06c-0.16,0.04-0.3,0.1-0.42,0.18
				c-0.12,0.08-0.23,0.18-0.32,0.31c-0.09,0.12-0.2,0.27-0.31,0.44l-1.87,2.84V37.71z"/>
			<path class="st0" d="M65.41,35.87c0,0.49-0.1,0.96-0.3,1.4c-0.2,0.44-0.47,0.82-0.81,1.15c-0.34,0.33-0.74,0.58-1.2,0.77
				c-0.46,0.19-0.95,0.28-1.47,0.28c-0.52,0-1.01-0.09-1.48-0.28c-0.46-0.19-0.86-0.45-1.2-0.77c-0.34-0.33-0.61-0.71-0.81-1.15
				c-0.2-0.44-0.3-0.9-0.3-1.4s0.1-0.96,0.3-1.4c0.2-0.44,0.47-0.82,0.81-1.15c0.34-0.33,0.74-0.58,1.2-0.77
				c0.46-0.19,0.95-0.28,1.48-0.28c0.52,0,1.01,0.09,1.47,0.28c0.46,0.19,0.86,0.45,1.2,0.77c0.34,0.33,0.61,0.71,0.81,1.15
				C65.3,34.91,65.41,35.38,65.41,35.87z M61.62,32.71c-0.49,0-0.91,0.1-1.25,0.3c-0.34,0.2-0.62,0.45-0.84,0.76
				c-0.22,0.31-0.37,0.65-0.47,1.02c-0.1,0.37-0.15,0.73-0.15,1.09c0,0.35,0.05,0.71,0.15,1.08c0.1,0.37,0.26,0.71,0.47,1.02
				c0.22,0.3,0.5,0.55,0.84,0.75c0.34,0.2,0.76,0.3,1.25,0.3c0.49,0,0.91-0.1,1.25-0.3c0.34-0.2,0.62-0.45,0.84-0.75
				c0.22-0.3,0.37-0.64,0.47-1.02c0.1-0.37,0.15-0.74,0.15-1.08c0-0.36-0.05-0.72-0.15-1.09c-0.1-0.37-0.25-0.71-0.47-1.02
				c-0.22-0.31-0.49-0.56-0.84-0.76C62.53,32.81,62.12,32.71,61.62,32.71z"/>
			<path class="st0" d="M72.45,37.59c0.34,0.4,0.69,0.73,1.06,0.99c0.36,0.26,0.72,0.41,1.06,0.45v0.24h-1.87l-2.25-2.99H69.9v1.42
				c0,0.28,0.01,0.51,0.03,0.68c0.02,0.17,0.07,0.31,0.15,0.41c0.08,0.1,0.19,0.16,0.33,0.19c0.14,0.03,0.33,0.05,0.57,0.05v0.24
				h-3.07v-0.24c0.23,0,0.42-0.02,0.57-0.05c0.14-0.03,0.25-0.09,0.33-0.19c0.08-0.1,0.12-0.23,0.15-0.41
				c0.02-0.17,0.03-0.4,0.03-0.68v-3.69c0-0.29-0.01-0.52-0.03-0.69c-0.02-0.17-0.07-0.3-0.15-0.4c-0.08-0.09-0.19-0.16-0.33-0.19
				c-0.14-0.03-0.33-0.05-0.57-0.05v-0.24h3c0.39,0,0.74,0.05,1.04,0.15c0.3,0.1,0.56,0.24,0.77,0.41c0.21,0.17,0.37,0.38,0.47,0.61
				c0.11,0.23,0.16,0.48,0.16,0.74c0,0.25-0.05,0.48-0.14,0.7c-0.09,0.22-0.22,0.41-0.39,0.57c-0.17,0.17-0.38,0.3-0.64,0.41
				c-0.25,0.11-0.54,0.18-0.86,0.22L72.45,37.59z M71.55,35.76c0.18-0.08,0.33-0.19,0.45-0.32c0.12-0.14,0.21-0.3,0.27-0.48
				c0.06-0.18,0.09-0.37,0.09-0.58c0-0.2-0.03-0.4-0.09-0.58c-0.06-0.18-0.15-0.34-0.27-0.48c-0.12-0.14-0.27-0.24-0.45-0.32
				c-0.18-0.08-0.39-0.12-0.64-0.12h-1v3h1C71.15,35.88,71.37,35.84,71.55,35.76z"/>
			<path class="st0" d="M83.52,38.38c0.11,0.09,0.23,0.18,0.36,0.26c0.14,0.08,0.27,0.15,0.41,0.21c0.14,0.06,0.27,0.11,0.39,0.14
				c0.12,0.03,0.23,0.05,0.3,0.05v0.24H81.8v-0.24c0.38,0,0.6-0.06,0.67-0.18c0.07-0.12-0.01-0.28-0.24-0.48l-2.87-2.49l-0.3,0.24
				v1.58c0,0.28,0.01,0.51,0.03,0.68c0.02,0.17,0.07,0.31,0.15,0.41c0.08,0.1,0.19,0.16,0.33,0.19c0.14,0.03,0.33,0.05,0.57,0.05
				v0.24h-3.07v-0.24c0.23,0,0.42-0.02,0.57-0.05c0.14-0.03,0.25-0.09,0.33-0.19c0.08-0.1,0.12-0.23,0.15-0.41
				c0.02-0.17,0.03-0.4,0.03-0.68v-3.69c0-0.29-0.01-0.52-0.03-0.69c-0.02-0.17-0.07-0.3-0.15-0.4c-0.08-0.09-0.19-0.16-0.33-0.19
				c-0.14-0.03-0.33-0.05-0.57-0.05v-0.24h3.07v0.24c-0.23,0-0.42,0.02-0.57,0.05c-0.14,0.03-0.25,0.09-0.33,0.19
				c-0.08,0.09-0.12,0.23-0.15,0.4c-0.02,0.17-0.03,0.4-0.03,0.69v1.59l2.33-1.99c0.36-0.31,0.55-0.54,0.57-0.69
				c0.02-0.15-0.16-0.23-0.52-0.23v-0.24h2.63v0.24c-0.22,0-0.41,0.02-0.59,0.05c-0.17,0.03-0.33,0.08-0.49,0.16
				c-0.16,0.08-0.31,0.17-0.47,0.28c-0.16,0.11-0.34,0.26-0.53,0.43L80,35.32L83.52,38.38z"/>
			<path class="st0" d="M88.46,39.3c-0.02,0.01-0.03,0.01-0.05,0.01c-0.02,0-0.03,0-0.05,0c-0.15,0-0.28-0.05-0.38-0.16
				c-0.1-0.11-0.15-0.24-0.15-0.39c0-0.15,0.05-0.28,0.15-0.39c0.1-0.11,0.23-0.16,0.38-0.16c0.15,0,0.29,0.06,0.42,0.17
				c0.13,0.11,0.19,0.3,0.19,0.55c0,0.12-0.02,0.26-0.06,0.41c-0.04,0.16-0.11,0.31-0.19,0.47c-0.09,0.16-0.2,0.3-0.33,0.45
				c-0.13,0.14-0.29,0.27-0.46,0.39l-0.13-0.14c0.21-0.22,0.36-0.42,0.45-0.6C88.36,39.72,88.42,39.52,88.46,39.3z"/>
			<path class="st0" d="M98.73,35.46h0.57c0.29,0,0.52-0.01,0.69-0.03c0.17-0.02,0.3-0.07,0.4-0.15c0.09-0.08,0.16-0.19,0.19-0.34
				c0.03-0.14,0.05-0.33,0.05-0.57h0.24v2.6h-0.24c0-0.24-0.02-0.43-0.05-0.57c-0.03-0.14-0.09-0.25-0.19-0.33
				c-0.09-0.08-0.23-0.13-0.4-0.15c-0.17-0.02-0.4-0.03-0.69-0.03h-0.57v1.83c0,0.28,0.01,0.51,0.03,0.68
				c0.02,0.17,0.07,0.31,0.15,0.41c0.08,0.1,0.19,0.16,0.33,0.19c0.14,0.03,0.33,0.05,0.57,0.05v0.24h-3.07v-0.24
				c0.23,0,0.42-0.02,0.57-0.05c0.14-0.03,0.25-0.09,0.33-0.19c0.08-0.1,0.12-0.23,0.15-0.41c0.02-0.17,0.03-0.4,0.03-0.68v-3.69
				c0-0.29-0.01-0.52-0.03-0.69c-0.02-0.17-0.07-0.3-0.15-0.4c-0.08-0.09-0.19-0.16-0.33-0.19c-0.14-0.03-0.33-0.05-0.57-0.05v-0.24
				h5.37l0.09,1.5h-0.24l-0.06-0.23c-0.04-0.15-0.08-0.28-0.12-0.39c-0.04-0.11-0.11-0.19-0.2-0.26c-0.09-0.07-0.21-0.12-0.37-0.15
				c-0.16-0.03-0.36-0.05-0.62-0.05h-1.87V35.46z"/>
			<path class="st0" d="M104.89,39.27v-0.24c0.23,0,0.42-0.02,0.57-0.05c0.14-0.03,0.25-0.09,0.33-0.19
				c0.08-0.1,0.12-0.23,0.15-0.41c0.02-0.17,0.03-0.4,0.03-0.68v-3.69c0-0.29-0.01-0.52-0.03-0.69c-0.02-0.17-0.07-0.3-0.15-0.4
				c-0.08-0.09-0.19-0.16-0.33-0.19c-0.14-0.03-0.33-0.05-0.57-0.05v-0.24h3.07v0.24c-0.23,0-0.42,0.02-0.57,0.05
				c-0.14,0.03-0.25,0.09-0.33,0.19c-0.08,0.09-0.12,0.23-0.15,0.4c-0.02,0.17-0.03,0.4-0.03,0.69v3.69c0,0.28,0.01,0.51,0.03,0.68
				c0.02,0.17,0.07,0.31,0.15,0.41c0.08,0.1,0.19,0.16,0.33,0.19c0.14,0.03,0.33,0.05,0.57,0.05v0.24H104.89z"/>
			<path class="st0" d="M112.69,35.46h0.57c0.29,0,0.52-0.01,0.69-0.03c0.17-0.02,0.3-0.07,0.4-0.15c0.09-0.08,0.16-0.19,0.19-0.34
				c0.03-0.14,0.05-0.33,0.05-0.57h0.24v2.6h-0.24c0-0.24-0.02-0.43-0.05-0.57c-0.03-0.14-0.09-0.25-0.19-0.33
				c-0.09-0.08-0.23-0.13-0.4-0.15c-0.17-0.02-0.4-0.03-0.69-0.03h-0.57v1.83c0,0.28,0.01,0.51,0.03,0.68
				c0.02,0.17,0.07,0.31,0.15,0.41c0.08,0.1,0.19,0.16,0.33,0.19c0.14,0.03,0.33,0.05,0.57,0.05v0.24h-3.07v-0.24
				c0.23,0,0.42-0.02,0.57-0.05c0.14-0.03,0.25-0.09,0.33-0.19c0.08-0.1,0.12-0.23,0.15-0.41c0.02-0.17,0.03-0.4,0.03-0.68v-3.69
				c0-0.29-0.01-0.52-0.03-0.69c-0.02-0.17-0.07-0.3-0.15-0.4c-0.08-0.09-0.19-0.16-0.33-0.19c-0.14-0.03-0.33-0.05-0.57-0.05v-0.24
				h5.37l0.09,1.5h-0.24l-0.06-0.23c-0.04-0.15-0.08-0.28-0.12-0.39c-0.04-0.11-0.11-0.19-0.2-0.26c-0.09-0.07-0.21-0.12-0.37-0.15
				c-0.16-0.03-0.36-0.05-0.62-0.05h-1.87V35.46z"/>
			<path class="st0" d="M125.79,33.99h-0.24l-0.06-0.23c-0.04-0.15-0.08-0.28-0.12-0.39c-0.05-0.11-0.11-0.2-0.2-0.27
				c-0.09-0.07-0.21-0.12-0.36-0.15c-0.15-0.03-0.36-0.05-0.62-0.05h-1.48v4.8c0,0.28,0.01,0.51,0.04,0.68
				c0.03,0.17,0.08,0.31,0.15,0.41c0.08,0.1,0.19,0.16,0.33,0.19c0.14,0.03,0.33,0.05,0.57,0.05v0.24h-3.09v-0.24
				c0.23,0,0.42-0.02,0.57-0.05c0.14-0.03,0.25-0.09,0.33-0.19c0.08-0.1,0.13-0.23,0.15-0.41c0.03-0.17,0.04-0.4,0.04-0.68v-4.8
				h-1.48c-0.26,0-0.46,0.02-0.62,0.05c-0.16,0.03-0.28,0.09-0.37,0.15c-0.09,0.07-0.16,0.16-0.2,0.27
				c-0.05,0.11-0.09,0.24-0.12,0.39l-0.06,0.23h-0.24l0.1-1.53h6.88L125.79,33.99z"/>
			<path class="st0" d="M130.32,37.71c0,0.28,0.01,0.51,0.03,0.68c0.02,0.17,0.07,0.31,0.15,0.41c0.08,0.1,0.19,0.16,0.33,0.19
				c0.14,0.03,0.33,0.05,0.57,0.05v0.24h-3.07v-0.24c0.23,0,0.42-0.02,0.57-0.05c0.14-0.03,0.25-0.09,0.33-0.19
				c0.08-0.1,0.12-0.23,0.15-0.41c0.02-0.17,0.03-0.4,0.03-0.68v-3.69c0-0.29-0.01-0.52-0.03-0.69c-0.02-0.17-0.07-0.3-0.15-0.4
				c-0.08-0.09-0.19-0.16-0.33-0.19c-0.14-0.03-0.33-0.05-0.57-0.05v-0.24h3.07v0.24c-0.23,0-0.42,0.02-0.57,0.05
				c-0.14,0.03-0.25,0.09-0.33,0.19c-0.08,0.09-0.12,0.23-0.15,0.4c-0.02,0.17-0.03,0.4-0.03,0.69v1.43h3.85v-1.43
				c0-0.29-0.01-0.52-0.04-0.69c-0.03-0.17-0.08-0.3-0.15-0.4c-0.08-0.09-0.19-0.16-0.33-0.19c-0.14-0.03-0.33-0.05-0.57-0.05v-0.24
				h3.09v0.24c-0.23,0-0.42,0.02-0.57,0.05c-0.14,0.03-0.26,0.09-0.34,0.19c-0.08,0.09-0.13,0.23-0.15,0.4
				c-0.02,0.17-0.03,0.4-0.03,0.69v3.69c0,0.28,0.01,0.51,0.03,0.68c0.02,0.17,0.07,0.31,0.15,0.41c0.08,0.1,0.19,0.16,0.34,0.19
				c0.14,0.03,0.33,0.05,0.57,0.05v0.24h-3.09v-0.24c0.23,0,0.42-0.02,0.57-0.05c0.14-0.03,0.25-0.09,0.33-0.19
				c0.08-0.1,0.13-0.23,0.15-0.41c0.03-0.17,0.04-0.4,0.04-0.68v-1.84h-3.85V37.71z"/>
			<path class="st0" d="M143.98,38.17c-0.14,0.31-0.14,0.53-0.02,0.66c0.12,0.13,0.43,0.2,0.9,0.2v0.24h-2.66v-0.24
				c0.23,0,0.42-0.02,0.56-0.05c0.14-0.03,0.26-0.08,0.35-0.15c0.09-0.07,0.17-0.17,0.23-0.3c0.06-0.13,0.14-0.29,0.23-0.49
				l2.5-5.78h0.15l2.51,5.78c0.09,0.2,0.17,0.36,0.23,0.49c0.06,0.13,0.14,0.23,0.23,0.3c0.09,0.07,0.2,0.12,0.34,0.15
				c0.14,0.03,0.32,0.05,0.56,0.05v0.24h-3.15v-0.24c0.48,0,0.78-0.06,0.9-0.19c0.13-0.13,0.12-0.35-0.02-0.67l-0.55-1.26h-2.75
				L143.98,38.17z M145.89,33.76l-1.18,2.74h2.37L145.89,33.76z"/>
			<path class="st0" d="M157.5,32.74c-0.14,0.03-0.25,0.08-0.34,0.15c-0.09,0.08-0.17,0.18-0.23,0.3c-0.06,0.12-0.14,0.29-0.23,0.49
				l-2.5,5.78h-0.15l-2.51-5.78c-0.09-0.2-0.17-0.37-0.23-0.49c-0.06-0.12-0.14-0.23-0.23-0.3c-0.09-0.08-0.2-0.13-0.34-0.15
				c-0.14-0.03-0.32-0.04-0.56-0.04v-0.24h3.15v0.24c-0.48,0-0.78,0.06-0.9,0.19c-0.12,0.13-0.12,0.35,0.02,0.67l1.93,4.42
				l1.91-4.42c0.14-0.31,0.14-0.53,0.02-0.66c-0.13-0.13-0.43-0.2-0.9-0.2v-0.24h2.65v0.24C157.82,32.7,157.64,32.71,157.5,32.74z"
				/>
			<path class="st0" d="M160.38,39.04c0.23,0,0.42-0.02,0.57-0.05c0.14-0.03,0.25-0.09,0.33-0.19c0.08-0.1,0.12-0.23,0.15-0.41
				c0.02-0.17,0.03-0.4,0.03-0.68v-3.69c0-0.29-0.01-0.52-0.03-0.69c-0.02-0.17-0.07-0.3-0.15-0.4c-0.08-0.09-0.19-0.16-0.33-0.19
				c-0.14-0.03-0.33-0.05-0.57-0.05v-0.24h5.18l0.1,1.5h-0.24l-0.06-0.23c-0.04-0.15-0.08-0.28-0.13-0.39
				c-0.05-0.11-0.11-0.19-0.2-0.26c-0.09-0.07-0.21-0.12-0.36-0.15c-0.15-0.03-0.36-0.05-0.62-0.05h-1.68v2.58h0.57
				c0.29,0,0.52-0.01,0.69-0.03c0.17-0.02,0.3-0.07,0.4-0.15c0.09-0.08,0.16-0.19,0.19-0.34c0.03-0.14,0.05-0.33,0.05-0.57h0.24v2.6
				h-0.24c0-0.24-0.02-0.43-0.05-0.57c-0.03-0.14-0.09-0.25-0.19-0.33c-0.09-0.08-0.23-0.13-0.4-0.15c-0.17-0.02-0.4-0.03-0.69-0.03
				h-0.57v1.66c0,0.28,0.01,0.51,0.03,0.68c0.02,0.17,0.07,0.31,0.15,0.4c0.08,0.09,0.19,0.16,0.33,0.19
				c0.14,0.03,0.33,0.05,0.57,0.05h0.98c0.26,0,0.48-0.02,0.63-0.05c0.16-0.03,0.28-0.09,0.37-0.15c0.09-0.07,0.16-0.16,0.2-0.27
				c0.04-0.11,0.08-0.24,0.12-0.39l0.06-0.23h0.24l-0.09,1.51h-5.56V39.04z"/>
			<path class="st0" d="M174.77,34.02c0-0.29-0.01-0.52-0.03-0.69c-0.02-0.17-0.07-0.3-0.15-0.4c-0.08-0.09-0.19-0.16-0.33-0.19
				c-0.14-0.03-0.33-0.05-0.57-0.05v-0.24h2.59v0.24c-0.23,0-0.42,0.02-0.57,0.05c-0.14,0.03-0.25,0.09-0.33,0.19
				c-0.08,0.09-0.13,0.23-0.15,0.4c-0.03,0.17-0.04,0.4-0.04,0.69v5.45h-0.26l-4.62-5.71v3.95c0,0.28,0.01,0.51,0.04,0.68
				c0.03,0.17,0.08,0.31,0.15,0.41c0.08,0.1,0.19,0.16,0.33,0.19c0.14,0.03,0.33,0.05,0.57,0.05v0.24h-2.59v-0.24
				c0.23,0,0.42-0.02,0.57-0.05c0.14-0.03,0.25-0.09,0.33-0.19c0.08-0.1,0.12-0.23,0.15-0.41c0.02-0.17,0.03-0.4,0.03-0.68v-3.69
				c0-0.29-0.01-0.52-0.03-0.69c-0.02-0.17-0.07-0.3-0.15-0.4c-0.08-0.09-0.19-0.16-0.33-0.19c-0.14-0.03-0.33-0.05-0.57-0.05v-0.24
				h1.6l4.36,5.41V34.02z"/>
			<path class="st0" d="M184.91,33.33c-0.03-0.17-0.08-0.3-0.15-0.4c-0.08-0.09-0.19-0.16-0.33-0.19c-0.14-0.03-0.33-0.05-0.57-0.05
				v-0.24h2.66v0.24c-0.23,0-0.42,0.02-0.57,0.05c-0.14,0.03-0.25,0.09-0.33,0.19c-0.08,0.09-0.13,0.23-0.15,0.4
				c-0.03,0.17-0.04,0.4-0.04,0.69v2.73c0,0.45-0.07,0.84-0.22,1.18c-0.14,0.34-0.34,0.62-0.59,0.85c-0.25,0.23-0.54,0.4-0.87,0.52
				c-0.33,0.12-0.69,0.18-1.07,0.18c-0.37,0-0.72-0.06-1.06-0.18c-0.33-0.12-0.62-0.29-0.87-0.52c-0.25-0.23-0.44-0.51-0.58-0.85
				c-0.14-0.34-0.22-0.73-0.22-1.18v-2.73c0-0.29-0.01-0.52-0.03-0.69c-0.02-0.17-0.07-0.3-0.15-0.4c-0.08-0.09-0.19-0.16-0.33-0.19
				c-0.14-0.03-0.33-0.05-0.57-0.05v-0.24h3.07v0.24c-0.23,0-0.42,0.02-0.57,0.05c-0.14,0.03-0.25,0.09-0.33,0.19
				c-0.08,0.09-0.13,0.23-0.15,0.4c-0.02,0.17-0.03,0.4-0.03,0.69v2.78c0,0.37,0.05,0.69,0.15,0.96c0.1,0.27,0.24,0.49,0.41,0.67
				c0.17,0.18,0.38,0.31,0.63,0.4c0.25,0.09,0.51,0.13,0.79,0.13c0.3,0,0.57-0.04,0.83-0.13c0.26-0.09,0.48-0.22,0.66-0.4
				c0.19-0.18,0.33-0.4,0.44-0.67c0.11-0.27,0.16-0.59,0.16-0.96v-2.78C184.95,33.73,184.94,33.5,184.91,33.33z"/>
			<path class="st0" d="M189.18,39.04c0.23,0,0.42-0.02,0.57-0.05c0.14-0.03,0.25-0.09,0.33-0.19c0.08-0.1,0.12-0.23,0.15-0.41
				c0.02-0.17,0.03-0.4,0.03-0.68v-3.69c0-0.29-0.01-0.52-0.03-0.69c-0.02-0.17-0.07-0.3-0.15-0.4c-0.08-0.09-0.19-0.16-0.33-0.19
				c-0.14-0.03-0.33-0.05-0.57-0.05v-0.24h5.18l0.1,1.5h-0.24l-0.06-0.23c-0.04-0.15-0.08-0.28-0.13-0.39
				c-0.05-0.11-0.11-0.19-0.2-0.26c-0.09-0.07-0.21-0.12-0.36-0.15c-0.15-0.03-0.36-0.05-0.62-0.05h-1.68v2.58h0.57
				c0.29,0,0.52-0.01,0.69-0.03c0.17-0.02,0.3-0.07,0.4-0.15c0.09-0.08,0.16-0.19,0.19-0.34c0.03-0.14,0.05-0.33,0.05-0.57h0.24v2.6
				h-0.24c0-0.24-0.02-0.43-0.05-0.57c-0.03-0.14-0.09-0.25-0.19-0.33c-0.09-0.08-0.23-0.13-0.4-0.15c-0.17-0.02-0.4-0.03-0.69-0.03
				h-0.57v1.66c0,0.28,0.01,0.51,0.03,0.68c0.02,0.17,0.07,0.31,0.15,0.4c0.08,0.09,0.19,0.16,0.33,0.19
				c0.14,0.03,0.33,0.05,0.57,0.05h0.98c0.26,0,0.48-0.02,0.63-0.05c0.16-0.03,0.28-0.09,0.37-0.15c0.09-0.07,0.16-0.16,0.2-0.27
				c0.04-0.11,0.08-0.24,0.12-0.39l0.06-0.23h0.24l-0.09,1.51h-5.56V39.04z"/>
		</g>
	</g>
	<g>
		<g>
			<path class="st0" d="M18.67,4.05h-0.56l-0.13-0.53c-0.09-0.36-0.19-0.66-0.29-0.92c-0.11-0.26-0.27-0.47-0.48-0.63
				c-0.21-0.16-0.5-0.28-0.85-0.36C16,1.53,15.51,1.49,14.89,1.49h-3.46v11.27c0,0.66,0.03,1.19,0.09,1.6
				c0.06,0.41,0.18,0.73,0.36,0.96c0.18,0.23,0.43,0.38,0.77,0.45c0.34,0.07,0.78,0.11,1.33,0.11v0.56H6.74v-0.56
				c0.55,0,0.99-0.04,1.33-0.11c0.34-0.07,0.59-0.22,0.77-0.45c0.18-0.23,0.3-0.55,0.36-0.96c0.06-0.41,0.09-0.94,0.09-1.6V1.49
				H5.83c-0.6,0-1.09,0.04-1.45,0.12c-0.36,0.08-0.65,0.2-0.87,0.36C3.3,2.13,3.14,2.34,3.03,2.6c-0.11,0.26-0.2,0.56-0.29,0.92
				L2.61,4.05H2.05l0.24-3.6h16.15L18.67,4.05z"/>
			<path class="st0" d="M26.51,12.76c0,0.66,0.03,1.19,0.08,1.6c0.05,0.41,0.17,0.73,0.35,0.96c0.18,0.23,0.44,0.38,0.77,0.45
				c0.34,0.07,0.78,0.11,1.33,0.11v0.56h-7.2v-0.56c0.55,0,0.99-0.04,1.33-0.11c0.34-0.07,0.6-0.22,0.77-0.45
				c0.18-0.23,0.29-0.55,0.35-0.96c0.05-0.41,0.08-0.94,0.08-1.6V4.1c0-0.67-0.03-1.21-0.08-1.61c-0.05-0.4-0.17-0.71-0.35-0.93
				c-0.18-0.22-0.44-0.37-0.77-0.44c-0.34-0.07-0.78-0.11-1.33-0.11V0.45h7.2v0.56c-0.55,0-1,0.04-1.33,0.11
				c-0.34,0.07-0.6,0.22-0.77,0.44c-0.18,0.22-0.29,0.53-0.35,0.93c-0.05,0.4-0.08,0.94-0.08,1.61v3.36h9.03V4.1
				c0-0.67-0.03-1.21-0.09-1.61c-0.06-0.4-0.18-0.71-0.36-0.93c-0.18-0.22-0.44-0.37-0.77-0.44c-0.34-0.07-0.78-0.11-1.33-0.11V0.45
				h7.25v0.56c-0.55,0-1,0.04-1.33,0.11c-0.34,0.07-0.6,0.22-0.79,0.44c-0.19,0.22-0.31,0.53-0.36,0.93
				c-0.05,0.4-0.08,0.94-0.08,1.61v8.66c0,0.66,0.03,1.19,0.08,1.6c0.05,0.41,0.17,0.73,0.36,0.96c0.19,0.23,0.45,0.38,0.79,0.45
				c0.34,0.07,0.78,0.11,1.33,0.11v0.56h-7.25v-0.56c0.55,0,0.99-0.04,1.33-0.11c0.34-0.07,0.59-0.22,0.77-0.45
				c0.18-0.23,0.3-0.55,0.36-0.96c0.06-0.41,0.09-0.94,0.09-1.6V8.45h-9.03V12.76z"/>
			<path class="st0" d="M43.86,15.88c0.55,0,0.99-0.04,1.33-0.11c0.34-0.07,0.6-0.22,0.77-0.45c0.18-0.23,0.29-0.55,0.35-0.96
				c0.05-0.41,0.08-0.94,0.08-1.6V4.1c0-0.67-0.03-1.21-0.08-1.61c-0.05-0.4-0.17-0.71-0.35-0.93c-0.18-0.22-0.44-0.37-0.77-0.44
				c-0.34-0.07-0.78-0.11-1.33-0.11V0.45h12.15l0.24,3.52h-0.56l-0.13-0.53c-0.09-0.36-0.19-0.66-0.29-0.91
				C55.16,2.28,55,2.08,54.78,1.92c-0.21-0.16-0.5-0.28-0.85-0.36c-0.36-0.08-0.84-0.12-1.47-0.12h-3.94v6.05h1.33
				c0.67,0,1.21-0.03,1.61-0.08c0.4-0.05,0.71-0.17,0.93-0.36c0.22-0.19,0.37-0.45,0.44-0.79c0.07-0.34,0.11-0.78,0.11-1.33h0.56
				v6.1h-0.56c0-0.57-0.04-1.02-0.11-1.35c-0.07-0.33-0.22-0.59-0.44-0.77c-0.22-0.19-0.53-0.31-0.93-0.36
				c-0.4-0.05-0.94-0.08-1.61-0.08h-1.33v3.89c0,0.66,0.03,1.19,0.08,1.6c0.05,0.41,0.17,0.72,0.35,0.95
				c0.18,0.22,0.44,0.37,0.77,0.44c0.34,0.07,0.78,0.11,1.33,0.11h2.29c0.62,0,1.11-0.04,1.48-0.12c0.36-0.08,0.65-0.2,0.87-0.36
				c0.21-0.16,0.37-0.37,0.47-0.63c0.1-0.26,0.19-0.56,0.28-0.92l0.13-0.53h0.56l-0.21,3.54H43.86V15.88z"/>
			<path class="st0" d="M68.27,15.88c0.55,0,0.99-0.04,1.33-0.11c0.34-0.07,0.6-0.22,0.77-0.45c0.18-0.23,0.29-0.55,0.35-0.96
				c0.05-0.41,0.08-0.94,0.08-1.6V4.1c0-0.67-0.03-1.21-0.08-1.61c-0.05-0.4-0.17-0.71-0.35-0.93c-0.18-0.22-0.44-0.37-0.77-0.44
				c-0.34-0.07-0.78-0.11-1.33-0.11V0.45h7.2v0.56c-0.55,0-1,0.04-1.33,0.11c-0.34,0.07-0.6,0.22-0.77,0.44
				c-0.18,0.22-0.29,0.53-0.35,0.93c-0.05,0.4-0.08,0.94-0.08,1.61v8.26c0,0.66,0.03,1.19,0.08,1.6c0.05,0.41,0.17,0.72,0.35,0.95
				c0.18,0.22,0.43,0.37,0.77,0.44c0.34,0.07,0.78,0.11,1.33,0.11h3.2c0.6,0,1.09-0.04,1.45-0.12c0.36-0.08,0.65-0.2,0.87-0.36
				c0.21-0.16,0.37-0.37,0.47-0.63c0.1-0.26,0.19-0.56,0.28-0.92l0.13-0.53h0.56l-0.21,3.54H68.27V15.88z"/>
			<path class="st0" d="M88.74,13.86c-0.32,0.73-0.33,1.25-0.04,1.56c0.29,0.31,1,0.47,2.12,0.47v0.56h-6.24v-0.56
				c0.55,0,0.99-0.04,1.32-0.11c0.33-0.07,0.6-0.19,0.81-0.36c0.21-0.17,0.39-0.4,0.53-0.71c0.14-0.3,0.32-0.68,0.53-1.15L93.64,0
				h0.35l5.89,13.56c0.21,0.46,0.39,0.84,0.53,1.15c0.14,0.3,0.32,0.54,0.53,0.71c0.21,0.17,0.48,0.29,0.8,0.36
				c0.32,0.07,0.75,0.11,1.31,0.11v0.56h-7.38v-0.56c1.12,0,1.83-0.15,2.12-0.45c0.29-0.3,0.28-0.83-0.04-1.57l-1.28-2.96h-6.45
				L88.74,13.86z M93.22,3.49l-2.77,6.42h5.57L93.22,3.49z"/>
			<path class="st0" d="M119.7,4.1c0-0.67-0.03-1.21-0.08-1.61c-0.05-0.4-0.17-0.71-0.35-0.93c-0.18-0.22-0.44-0.37-0.77-0.44
				c-0.34-0.07-0.78-0.11-1.33-0.11V0.45h6.07v0.56c-0.55,0-0.99,0.04-1.33,0.11c-0.34,0.07-0.6,0.22-0.77,0.44
				c-0.18,0.22-0.3,0.53-0.36,0.93c-0.06,0.4-0.09,0.94-0.09,1.61v12.79h-0.61l-10.85-13.4v9.27c0,0.66,0.03,1.19,0.09,1.6
				c0.06,0.41,0.18,0.73,0.36,0.96c0.18,0.23,0.44,0.38,0.77,0.45c0.34,0.07,0.78,0.11,1.33,0.11v0.56h-6.08v-0.56
				c0.55,0,0.99-0.04,1.33-0.11c0.34-0.07,0.6-0.22,0.77-0.45c0.18-0.23,0.29-0.55,0.35-0.96c0.05-0.41,0.08-0.94,0.08-1.6V4.1
				c0-0.67-0.03-1.21-0.08-1.61c-0.05-0.4-0.17-0.71-0.35-0.93c-0.18-0.22-0.44-0.37-0.77-0.44c-0.34-0.07-0.78-0.11-1.33-0.11V0.45
				h3.76l10.23,12.68V4.1z"/>
			<path class="st0" d="M139.48,12.1c0-0.57-0.19-1-0.56-1.29c-0.37-0.29-1.02-0.44-1.95-0.44V9.83h6.98v0.53
				c-0.55,0-1,0.04-1.33,0.11c-0.34,0.07-0.6,0.22-0.77,0.45c-0.18,0.23-0.29,0.55-0.35,0.95c-0.05,0.4-0.08,0.94-0.08,1.61v2.03
				c-0.75,0-1.39,0.07-1.94,0.21c-0.55,0.14-1.08,0.3-1.59,0.48c-0.51,0.18-1.03,0.34-1.56,0.48c-0.53,0.14-1.15,0.21-1.84,0.21
				c-1.12,0-2.18-0.22-3.17-0.67c-1-0.44-1.87-1.05-2.61-1.81c-0.75-0.76-1.33-1.66-1.76-2.69c-0.43-1.03-0.64-2.12-0.64-3.28
				c0-1.15,0.21-2.25,0.64-3.28c0.43-1.03,1.01-1.93,1.76-2.69c0.75-0.76,1.62-1.37,2.61-1.81C132.32,0.22,133.38,0,134.5,0
				c0.94,0,1.83,0.2,2.68,0.59c0.84,0.39,1.6,0.95,2.28,1.68c0.18-0.14,0.35-0.35,0.53-0.61c0.18-0.27,0.3-0.57,0.37-0.91h0.53v5.86
				h-0.53c-0.36-1.74-1.03-3.1-2.03-4.09c-1-0.99-2.25-1.48-3.76-1.48c-1.07,0-1.97,0.23-2.7,0.69c-0.74,0.46-1.34,1.05-1.8,1.77
				c-0.46,0.72-0.8,1.51-1,2.38c-0.2,0.87-0.31,1.72-0.31,2.56c0,0.82,0.1,1.66,0.29,2.53c0.19,0.87,0.53,1.66,1.01,2.36
				c0.48,0.7,1.13,1.28,1.94,1.73c0.82,0.45,1.84,0.68,3.06,0.68c0.59,0,1.14-0.08,1.67-0.24c0.52-0.16,0.99-0.39,1.4-0.69
				c0.41-0.3,0.73-0.68,0.97-1.13C139.36,13.23,139.48,12.7,139.48,12.1z"/>
			<path class="st0" d="M150.47,12.76c0,0.66,0.03,1.19,0.08,1.6c0.05,0.41,0.17,0.73,0.35,0.96c0.18,0.23,0.44,0.38,0.77,0.45
				c0.34,0.07,0.78,0.11,1.33,0.11v0.56h-7.2v-0.56c0.55,0,0.99-0.04,1.33-0.11c0.34-0.07,0.6-0.22,0.77-0.45
				c0.18-0.23,0.29-0.55,0.35-0.96c0.05-0.41,0.08-0.94,0.08-1.6V4.1c0-0.67-0.03-1.21-0.08-1.61c-0.05-0.4-0.17-0.71-0.35-0.93
				c-0.18-0.22-0.44-0.37-0.77-0.44c-0.34-0.07-0.78-0.11-1.33-0.11V0.45h7.2v0.56c-0.55,0-1,0.04-1.33,0.11
				c-0.34,0.07-0.6,0.22-0.77,0.44c-0.18,0.22-0.29,0.53-0.35,0.93c-0.05,0.4-0.08,0.94-0.08,1.61v3.36h9.03V4.1
				c0-0.67-0.03-1.21-0.09-1.61c-0.06-0.4-0.18-0.71-0.36-0.93c-0.18-0.22-0.44-0.37-0.77-0.44c-0.34-0.07-0.78-0.11-1.33-0.11V0.45
				h7.25v0.56c-0.55,0-1,0.04-1.33,0.11c-0.34,0.07-0.6,0.22-0.79,0.44c-0.19,0.22-0.31,0.53-0.36,0.93
				c-0.05,0.4-0.08,0.94-0.08,1.61v8.66c0,0.66,0.03,1.19,0.08,1.6c0.05,0.41,0.17,0.73,0.36,0.96c0.19,0.23,0.45,0.38,0.79,0.45
				c0.34,0.07,0.78,0.11,1.33,0.11v0.56h-7.25v-0.56c0.55,0,0.99-0.04,1.33-0.11c0.34-0.07,0.59-0.22,0.77-0.45
				c0.18-0.23,0.3-0.55,0.36-0.96c0.06-0.41,0.09-0.94,0.09-1.6V8.45h-9.03V12.76z"/>
			<path class="st0" d="M171,13.86c-0.32,0.73-0.33,1.25-0.04,1.56c0.29,0.31,1,0.47,2.12,0.47v0.56h-6.24v-0.56
				c0.55,0,0.99-0.04,1.32-0.11c0.33-0.07,0.6-0.19,0.81-0.36c0.21-0.17,0.39-0.4,0.53-0.71c0.14-0.3,0.32-0.68,0.53-1.15L175.9,0
				h0.35l5.89,13.56c0.21,0.46,0.39,0.84,0.53,1.15c0.14,0.3,0.32,0.54,0.53,0.71c0.21,0.17,0.48,0.29,0.8,0.36
				c0.32,0.07,0.75,0.11,1.31,0.11v0.56h-7.38v-0.56c1.12,0,1.83-0.15,2.12-0.45c0.29-0.3,0.28-0.83-0.04-1.57l-1.28-2.96h-6.45
				L171,13.86z M175.48,3.49l-2.77,6.42h5.57L175.48,3.49z"/>
			<path class="st0" d="M191.49,12.76c0,0.66,0.03,1.19,0.09,1.6c0.06,0.41,0.18,0.73,0.36,0.96c0.18,0.23,0.43,0.38,0.77,0.45
				c0.34,0.07,0.78,0.11,1.33,0.11v0.56h-6.08v-0.56c0.55,0,0.99-0.04,1.33-0.11c0.34-0.07,0.6-0.22,0.77-0.45
				c0.18-0.23,0.29-0.55,0.35-0.96c0.05-0.41,0.08-0.94,0.08-1.6V4.1c0-0.67-0.03-1.21-0.08-1.61c-0.05-0.4-0.17-0.71-0.35-0.93
				c-0.18-0.22-0.44-0.37-0.77-0.44c-0.34-0.07-0.78-0.11-1.33-0.11V0.45h4.53l5.65,12.98l5.62-12.98h4.18v0.56
				c-0.55,0-1,0.04-1.33,0.11c-0.34,0.07-0.6,0.22-0.79,0.44c-0.19,0.22-0.31,0.53-0.36,0.93c-0.05,0.4-0.08,0.94-0.08,1.61v8.66
				c0,0.66,0.03,1.19,0.08,1.6c0.05,0.41,0.17,0.73,0.36,0.96c0.19,0.23,0.45,0.38,0.79,0.45c0.34,0.07,0.78,0.11,1.33,0.11v0.56
				h-7.19v-0.56c0.55,0,0.99-0.04,1.33-0.11c0.34-0.07,0.59-0.22,0.77-0.45c0.18-0.23,0.29-0.55,0.35-0.96
				c0.05-0.41,0.08-0.94,0.08-1.6V4.08l-5.54,12.82h-0.35l-5.92-13.62V12.76z"/>
		</g>
	</g>
</g>
</svg>
