<svg id="Layer_1" data-name="Layer 1" xmlns="http://www.w3.org/2000/svg" viewBox="0 0 272.61 132.66"><defs><style>.cls-1{fill:#2d72b9;}</style></defs><title>wvo_button_only_logo_club_wyndham_apr19_lg_test-01</title><g id="Logo"><path id="Artwork" class="cls-1" d="M72.66,121.82h5.21a4.2,4.2,0,0,1,3,1,2.56,2.56,0,0,1,.78,1.86h0A2.8,2.8,0,0,1,80,127.31a2.83,2.83,0,0,1,2.31,2.82h0c0,2.09-1.71,3.2-4.3,3.2H72.66Zm7,3.27c0-.91-.74-1.47-2.06-1.47H74.69v3.09h2.79c1.32,0,2.19-.52,2.19-1.58h0Zm-1.75,3.35H74.69v3.2h3.38c1.38,0,2.24-.56,2.24-1.6h0C80.31,129,79.45,128.44,77.92,128.44Zm27.9-6.62H108l2.75,8.54,2.83-8.54h1.86l2.8,8.54,2.78-8.54h2.12l-4.11,11.62h-1.86l-2.87-8.36-2.84,8.36h-1.86Zm24.33,7.05-4.65-7.05h2.44l3.23,5.13,3.29-5.13h2.35l-4.61,7v4.65h-2.07v-4.59Zm-41.53,0L84,121.82h2.44L89.64,127l3.29-5.13h2.35l-4.67,7v4.65h-2v-4.59Zm52.08-7.05h1.86l6.21,8v-8h2v11.62h-1.71l-6.38-8.27v8.27h-2.07V121.82Zm16.08,0h4.34a5.8,5.8,0,0,1,6.12,5.46c0,.1,0,.2,0,.31h0a5.82,5.82,0,0,1-5.8,5.83h-4.72Zm2.05,1.86v7.9h2.31a3.71,3.71,0,0,0,4-3.41,2.81,2.81,0,0,0,0-.58h0a3.8,3.8,0,0,0-3.67-4,2.41,2.41,0,0,0-.38,0Zm13-1.86h2.06v4.84h5.58v-4.84h2.07v11.62h-2.07v-4.91h-5.58v4.91h-2.06Zm18.84,0h2l5.08,11.62h-2.16l-1.19-2.8h-5.58l-1.21,2.8h-2.14Zm2.71,7-2-4.65-2,4.65Zm8-7h2.18l3.55,5.58,3.53-5.58h2.2v11.62h-2.07v-8.35l-3.72,5.58h0l-3.72-5.45v8.3h-2v-11.7ZM26.31,97.23c1.12-4.63,2.29-9.3,3.44-13.91a1.09,1.09,0,0,1,1-.82h4.37a.75.75,0,0,1,.73.76.47.47,0,0,1,0,.17l-6.24,22.32a2,2,0,0,1-1.86,1.45H24.19a1.73,1.73,0,0,1-1.69-1.28L18.59,91.75a.29.29,0,0,0-.38-.18.28.28,0,0,0-.17.18c-1.4,4.78-2.83,9.46-4.23,14.21a1.84,1.84,0,0,1-1.69,1.24H8.64a2,2,0,0,1-1.86-1.45L.42,83.43a.71.71,0,0,1,.48-.88.76.76,0,0,1,.21,0H6a1.06,1.06,0,0,1,1,.82l3.32,14a.29.29,0,0,0,.55,0c1.4-4.54,2.83-9.15,4.23-13.64a1.67,1.67,0,0,1,1.61-1.19h3.48a1.7,1.7,0,0,1,1.64,1.23l4,13.5a.27.27,0,0,0,.38.08A.2.2,0,0,0,26.31,97.23ZM52,107.7a12.82,12.82,0,0,1,0-25.63h0a12.82,12.82,0,1,1,0,25.63Zm0-20.58c-4,0-6.34,3.51-6.34,7.75S48,102.66,52,102.66s6.34-3.53,6.34-7.79S56,87.12,52,87.12Zm36.92,8.74c1.74.7,2.34,2.41,3,5a19.21,19.21,0,0,0,1.86,5,.93.93,0,0,1-.37,1.26.89.89,0,0,1-.45.12H89a2.63,2.63,0,0,1-2.33-1.36,13.06,13.06,0,0,1-1.09-3c-.13-.49-.3-1-.45-1.55-.26-.85-.48-1.67-.6-2.23A1.45,1.45,0,0,0,83,98H78.71a1,1,0,0,0-1,1v6.67a1.52,1.52,0,0,1-1.52,1.51h-3.4a1.53,1.53,0,0,1-1.53-1.51V84a1.53,1.53,0,0,1,1.53-1.53h11.6c6.79,0,9.49,3.28,9.49,6.92A6.42,6.42,0,0,1,88.92,95.86Zm-5.4-8.24h-4.8a1.08,1.08,0,0,0-1.06,1.08v3.9a1.08,1.08,0,0,0,1.06,1.08h4.65c2.72,0,4-1.49,4-3.22S86.26,87.62,83.52,87.62Zm155.21,8.24c1.75.7,2.32,2.41,3.05,5a18.53,18.53,0,0,0,1.86,5,.92.92,0,0,1-.37,1.26.89.89,0,0,1-.45.12h-4a2.61,2.61,0,0,1-2.32-1.36,12.69,12.69,0,0,1-1.12-3c-.11-.49-.28-1-.43-1.55-.26-.85-.48-1.67-.61-2.23A1.42,1.42,0,0,0,232.78,98H228.5a1,1,0,0,0-1,1v6.67a1.53,1.53,0,0,1-1.53,1.51h-3.38a1.53,1.53,0,0,1-1.53-1.51V84a1.54,1.54,0,0,1,1.53-1.53h11.6c6.77,0,9.49,3.28,9.49,6.92A6.43,6.43,0,0,1,238.73,95.86Zm-5.41-8.24h-4.8a1.08,1.08,0,0,0-1.08,1.08h0v3.9a1.08,1.08,0,0,0,1.08,1.08h4.65c2.71,0,4-1.49,4-3.22S236.07,87.62,233.32,87.62ZM101,105.73V84.05a1.54,1.54,0,0,1,1.52-1.53H106a1.55,1.55,0,0,1,1.53,1.53v18.22h10.37a1.53,1.53,0,0,1,1.53,1.51v2a1.53,1.53,0,0,1-1.53,1.53H102.53A1.57,1.57,0,0,1,101,105.73Zm35.2,1.53h-9a1.54,1.54,0,0,1-1.53-1.53V84.05a1.53,1.53,0,0,1,1.53-1.53h9c7.72,0,12.41,5,12.41,12.35S143.93,107.26,136.21,107.26Zm-.44-19.74h-2.53a1.08,1.08,0,0,0-1.06,1.06v12.6a1.08,1.08,0,0,0,1.06,1.07h2.53c4,0,6.38-3,6.38-7.43S139.82,87.52,135.77,87.52Zm42,18.21V92a.23.23,0,0,0-.29-.16.23.23,0,0,0-.17.16c-1.66,4.6-3.59,9.84-5.19,14.32a1.42,1.42,0,0,1-1.36,1h-2.66a1.44,1.44,0,0,1-1.35-1L161.45,92a.24.24,0,0,0-.46,0v13.76a1.53,1.53,0,0,1-1.53,1.51h-2.68a1.52,1.52,0,0,1-1.52-1.51V84a1.53,1.53,0,0,1,1.52-1.53h5.58a1.61,1.61,0,0,1,1.51,1.06l5.28,14.88a.34.34,0,0,0,.45.22.32.32,0,0,0,.22-.22c1.75-4.91,3.52-10,5.26-14.88a1.6,1.6,0,0,1,1.51-1.06h5.79A1.53,1.53,0,0,1,183.9,84v21.7a1.52,1.52,0,0,1-1.52,1.51h-3a1.5,1.5,0,0,1-1.59-1.41S177.74,105.76,177.74,105.73Zm36.9,1.53h-5a1.38,1.38,0,0,1-1.34-1l-1.06-3.07a.88.88,0,0,0-.83-.58h-8.6a.84.84,0,0,0-.8.58c-.35,1-.76,2.06-1.09,3.07a1.46,1.46,0,0,1-1.34,1h-4.37a.6.6,0,0,1-.6-.6.45.45,0,0,1,0-.2l8.91-22.93a1.6,1.6,0,0,1,1.47-1H205a1.58,1.58,0,0,1,1.46,1l8.81,22.94a.57.57,0,0,1-.33.74A.69.69,0,0,1,214.64,107.26Zm-15-9.3h5a.57.57,0,0,0,.57-.58.64.64,0,0,0,0-.2c-.95-2.64-1.86-5.12-2.83-7.89a.26.26,0,0,0-.32-.18.24.24,0,0,0-.18.18l-2.81,7.89a.61.61,0,0,0,.53.65h0Zm50.94,8.18V83.62a1.1,1.1,0,0,1,1.08-1.12h4.27a1.1,1.1,0,0,1,1.1,1.1v8.05a.39.39,0,0,0,.41.38.34.34,0,0,0,.26-.12c2.44-2.88,4.93-5.8,7.35-8.68a2.13,2.13,0,0,1,1.58-.73H272a.66.66,0,0,1,.64.66.65.65,0,0,1-.16.42l-8.26,9.52c2.74,4.15,5.94,8.91,8.73,13.13a.66.66,0,0,1-.2.9.6.6,0,0,1-.34.11H267.3a2,2,0,0,1-1.75-1l-5.13-8.14a.72.72,0,0,0-1-.12.46.46,0,0,0-.12.12l-1.75,2a1.76,1.76,0,0,0-.46,1.21v4.88a1.09,1.09,0,0,1-1.1,1.09h-4.26a1.07,1.07,0,0,1-1.15-1A.54.54,0,0,1,250.56,106.14ZM125.35,43.89c1.86,2.07,3.27,4.39,2.51,7.26a6.82,6.82,0,0,1-4.7,4.79,6.67,6.67,0,0,1-6.46-1.86,6.41,6.41,0,0,1-1.47-6.64,12.48,12.48,0,0,1,2.5-3.72l1.86-2.13a.7.7,0,0,0,0-.9l-2-2.38a.5.5,0,0,0-.7-.09.43.43,0,0,0-.1.09L113.54,42a20.94,20.94,0,0,0-1.26,1.86,10.89,10.89,0,0,0-1.71,7.57,11,11,0,1,0,21.66-3.87,15.82,15.82,0,0,0-3.9-6.73h0L98.05,7.23a2.21,2.21,0,0,0-3.6,2.57,1.65,1.65,0,0,0,.33.37Zm6.47-22.19-8.55,9.41a.7.7,0,0,0,0,.9l2.1,2.45a.52.52,0,0,0,.73.07.23.23,0,0,0,.07-.07l8.52-9.3a.71.71,0,0,0,0-.91l-2.1-2.44a.49.49,0,0,0-.68-.08l-.09.08Zm24.05,12.76a.5.5,0,0,0,.71,0l0,0,22-24.18a2.31,2.31,0,0,0,0-3.23,2.27,2.27,0,0,0-3.21.28L153.73,31a.68.68,0,0,0,0,.89Zm6.7,12.89a15.74,15.74,0,0,0-3.91-6.73h0L133.07,12.39a5.34,5.34,0,0,1-1.17-2.91A4.61,4.61,0,0,1,133.55,6a4.7,4.7,0,0,1,6,0h0a4.56,4.56,0,0,1,1.62,3.42,5.55,5.55,0,0,1-1.14,3h0a5.93,5.93,0,0,1-.48.64c-.17.2-.71.89-1,1.32s0,.85.24,1.22l1.86,2.14a.52.52,0,0,0,.73.07.23.23,0,0,0,.07-.07l1.86-2h0a11.12,11.12,0,0,0,2.14-3.94,9,9,0,1,0-17.63-.72,10.24,10.24,0,0,0,1.86,4l26,28.86c1.86,2.07,3.28,4.39,2.52,7.26a6.77,6.77,0,0,1-4.71,4.77,6.62,6.62,0,0,1-6.45-1.85,6.38,6.38,0,0,1-1.49-6.63,13.7,13.7,0,0,1,2.49-3.72l1.86-2.12a.66.66,0,0,0,0-.89l-2-2.4a.51.51,0,0,0-.73-.06l-.07.06-3.22,3.54a18.38,18.38,0,0,0-1.26,1.86,10.91,10.91,0,0,0-1.71,7.58,11.15,11.15,0,0,0,18.69,6.32,11,11,0,0,0,3-10.2Z" transform="translate(-0.39 -0.86)"/></g></svg>